<svg width="387" height="41" viewBox="0 0 387 41" fill="none" xmlns="http://www.w3.org/2000/svg">
<g filter="url(#filter0_dd_472_21989)">
<path d="M21.4422 4.09998C21.5782 19.094 25.0802 35.958 31.9822 35.958C34.6342 35.958 35.6882 34.87 36.4022 30.79C35.4842 30.382 34.3282 29.532 33.5802 28.614C33.3762 31.3 33.0362 32.082 32.3902 32.082C29.0582 32.082 25.2502 17.53 25.4202 4.09998H21.4422ZM26.7122 6.61598C28.5482 7.63597 30.7922 9.26798 31.7782 10.39L34.4982 7.70398C33.3762 6.54797 31.0642 5.08598 29.2622 4.16797L26.7122 6.61598ZM28.3442 14.266C26.1342 16.748 21.9182 18.788 17.8722 19.944C18.5522 20.556 19.7082 21.848 20.1842 22.528C24.2642 20.998 28.8202 18.516 31.5062 15.422L28.3442 14.266ZM32.3902 22.63C29.4322 27.492 23.6522 31.096 17.3962 33.102C18.1442 33.816 19.4362 35.278 19.9802 36.06C26.2022 33.646 32.3562 29.566 35.8922 23.956L32.3902 22.63ZM30.4862 18.074C28.0722 21.644 23.4482 24.5 18.6882 26.166C19.4022 26.778 20.5922 28.138 21.1022 28.784C25.8622 26.744 30.8262 23.412 33.6822 19.196L30.4862 18.074ZM4.23816 9.77798V13.45H36.0622V9.77798H4.23816ZM4.27216 29.668L5.08816 33.51C8.93016 32.898 14.0302 32.082 18.8582 31.266L18.6542 27.764C13.4522 28.512 7.87616 29.26 4.27216 29.668ZM9.61016 19.026H13.4862V22.834H9.61016V19.026ZM5.90416 15.864V25.996H17.4302V15.864H5.90416Z" fill="#054C81"/>
<path d="M52.5862 6.58198V5.11997H57.0742V6.58198H70.1302V12.736H67.5462V18.074H42.1142V12.736H39.5302V6.58198H52.5862ZM39.2242 36.4C41.3775 34.36 42.9415 32.2746 43.9162 30.144H41.9102V23.344H67.8182V30.144H63.0582C63.5115 30.9826 64.0555 31.8326 64.6902 32.694L66.0842 30.756H70.8102L68.0902 34.496H66.1862C66.7755 35.1533 67.4102 35.788 68.0902 36.4H62.5822C61.0635 34.7453 59.6695 32.66 58.4002 30.144H53.6742V32.184H56.4962V36.4H49.2542V30.144H48.3362C47.3162 32.4786 46.0242 34.564 44.4602 36.4H39.2242ZM39.5302 18.958H70.1302V22.46H39.5302V18.958ZM65.7102 11.716V10.458H43.9502V11.716H65.7102ZM63.3982 27.288V26.166H46.3302V27.288H63.3982ZM49.3222 15.524V14.266H46.4662V15.524H49.3222ZM56.2582 15.524V14.266H53.4022V15.524H56.2582ZM63.1942 15.524V14.266H60.3382V15.524H63.1942Z" fill="#054C81"/>
<path d="M88.1842 26.676L97.6022 24.806V5.83398H102.022V23.956L105.388 23.276V27.832L102.022 28.512V36.74H97.6022V29.362L88.1842 31.232V26.676ZM74.0062 35.414C74.9355 30.2913 75.4002 24.9986 75.4002 19.536H78.5962C78.5962 25.384 78.1882 30.6766 77.3722 35.414H74.0062ZM74.3802 13.824H79.2762V10.866C77.8255 10.934 76.3408 10.968 74.8222 10.968V6.81997C78.4488 6.81997 82.4608 6.49131 86.8582 5.83398V10.016C85.3168 10.2653 84.2402 10.424 83.6282 10.492V13.824H87.5042V17.972H83.6282V20.556L87.4362 22.426V27.288L83.6282 25.418V36.74H79.5142V17.972H74.3802V13.824ZM88.4902 15.49L95.3582 17.87V22.12L88.4902 19.74V15.49ZM89.8502 7.77198L96.7182 10.152V14.402L89.8502 12.022V7.77198Z" fill="#054C81"/>
<path d="M120.076 32.048C122.637 31.0053 124.847 29.8946 126.706 28.716C124.213 25.7466 122.513 21.9273 121.606 17.258H128.236V12.702H121.368V8.55398H128.236V5.79998H132.588V8.55398H139.66V12.702H132.588V17.258H139.252C138.776 21.7006 136.725 25.656 133.098 29.124C135.206 30.688 137.28 31.742 139.32 32.286V36.808C135.376 35.244 132.237 33.5553 129.902 31.742C127.069 33.782 123.793 35.3913 120.076 36.57V32.048ZM108.754 21.78L112.29 20.93V14.64H109.094V10.356H112.29V5.62997H116.71V10.356H119.94V14.64H116.71V19.91L120.28 19.06V23.786L116.71 24.636V36.4H109.672V32.286H112.29V25.656L108.754 26.506V21.78ZM126.672 21.202C127.397 22.9473 128.497 24.6473 129.97 26.302C131.738 24.6926 133.053 22.9926 133.914 21.202H126.672Z" fill="#054C81"/>
<path d="M172.504 22.086V36.128H145.236V22.086H172.504ZM145.474 5.39198H149.826L149.35 6.58198H158.156V10.254H153.362V11.852H158.87V15.592H153.804C154.529 16.136 155.3 16.578 156.116 16.918C156.932 17.258 157.85 17.5526 158.87 17.802V21.814C157.17 21.474 155.719 21.032 154.518 20.488C153.339 19.9213 152.24 19.094 151.22 18.006C150.177 19.094 149.067 19.9213 147.888 20.488C146.732 21.032 145.293 21.474 143.57 21.814V17.802C144.59 17.5526 145.508 17.258 146.324 16.918C147.14 16.578 147.911 16.136 148.636 15.592H143.57V11.852H149.01V10.254H143.536L145.474 5.39198ZM168.084 32.422V30.756H149.656V32.422H168.084ZM168.084 27.458V25.792H149.656V27.458H168.084ZM160.298 6.41197H173.32V20.692H160.298V6.41197ZM169.07 16.442V10.662H164.548V16.442H169.07Z" fill="#054C81"/>
<path d="M179.882 24.874H201.54V23.718H181.922V21.134H201.54V19.978H180.222V17.19H206.062V27.696H179.882V24.874ZM178.25 32.048C179.927 31.232 180.902 30.0193 181.174 28.41H185.016C184.789 32.286 182.534 34.9493 178.25 36.4V32.048ZM178.25 13.008H184.064V12.09H179.406V9.64198H184.064V8.68998H178.76V6.10598H184.064V5.11997H188.484V6.10598H192.632V8.68998H188.484V9.64198H192.156V12.09H188.484V13.008H193.142V15.626H188.484V16.68H184.064V15.626H178.25V13.008ZM185.9 28.41H190.116V32.966H198.072V30.552H202.118V36.4H185.9V28.41ZM196.372 28.41L197.29 32.116H192.938L192.02 28.41H196.372ZM193.958 13.008H198.616V12.09H194.944V9.64198H198.616V8.68998H194.468V6.10598H198.616V5.11997H203.036V6.10598H208.34V8.68998H203.036V9.64198H207.694V12.09H203.036V13.008H208.85V15.626H203.036V16.68H198.616V15.626H193.958V13.008ZM205.926 28.41C206.198 30.0193 207.173 31.232 208.85 32.048V36.4C204.566 34.9493 202.311 32.286 202.084 28.41H205.926Z" fill="#054C81"/>
<path d="M212.93 30.11H225.884V12.056H214.664V7.49997H241.796V12.056H230.576V30.11H243.53V34.666H212.93V30.11Z" fill="#054C81"/>
<path d="M246.93 36.4C248.29 33.7026 249.242 31.0846 249.786 28.546C250.33 25.9846 250.602 23.0606 250.602 19.774V7.12598H278.21V11.75H255.26V19.774C255.26 22.9246 255.033 25.8373 254.58 28.512C254.149 31.1866 253.424 33.816 252.404 36.4H246.93Z" fill="#054C81"/>
<path d="M301.568 13.96V30.28H285.112V13.96H301.568ZM282.018 6.64998H313.162V11.036H310.272V36.468H300.82V32.082H305.886V11.036H282.018V6.64998ZM297.216 25.928V18.346H289.464V25.928H297.216Z" fill="#054C81"/>
<path d="M329.516 6.37797H346.584V26.2H342.504V10.798H333.596V26.2H329.516V6.37797ZM316.29 25.758C319.237 21.882 321.458 17.802 322.954 13.518H317.004V9.30198H320.744V5.62997H325.096V9.30198H328.598C328.031 12.2033 327.204 15.048 326.116 17.836C325.844 18.5386 325.572 19.162 325.3 19.706L328.666 21.542V26.166L325.232 24.296V36.4H320.812V25.758H316.29ZM328.632 36.4C331.352 33.5893 333.256 30.8466 334.344 28.172C335.455 25.4746 336.01 22.4033 336.01 18.958V12.26H339.954V18.958C339.954 22.29 339.501 25.3726 338.594 28.206C337.71 31.0393 336.248 33.7706 334.208 36.4H328.632ZM339.138 27.39H343.014V32.252H347.876V36.4H339.138V27.39Z" fill="#054C81"/>
<path d="M365.828 23.31C363.516 24.3526 361.487 25.214 359.742 25.894V20.862C361.85 20.0233 363.879 19.1393 365.828 18.21V5.79998H370.316V16C373.965 14.096 377.535 12.022 381.026 9.77798V15.082C377.739 17.258 374.169 19.298 370.316 21.202V31.572H382.488V36.128H365.828V23.31ZM351.31 17.054C353.939 14.0393 355.775 10.288 356.818 5.79998H361.272C360.773 8.81464 359.935 11.6253 358.756 14.232V36.57H354.336V21.134C353.52 22.0633 352.511 23.038 351.31 24.058V17.054Z" fill="#054C81"/>
<path d="M21.4422 4.09998C21.5782 19.094 25.0802 35.958 31.9822 35.958C34.6342 35.958 35.6882 34.87 36.4022 30.79C35.4842 30.382 34.3282 29.532 33.5802 28.614C33.3762 31.3 33.0362 32.082 32.3902 32.082C29.0582 32.082 25.2502 17.53 25.4202 4.09998H21.4422ZM26.7122 6.61598C28.5482 7.63597 30.7922 9.26798 31.7782 10.39L34.4982 7.70398C33.3762 6.54797 31.0642 5.08598 29.2622 4.16797L26.7122 6.61598ZM28.3442 14.266C26.1342 16.748 21.9182 18.788 17.8722 19.944C18.5522 20.556 19.7082 21.848 20.1842 22.528C24.2642 20.998 28.8202 18.516 31.5062 15.422L28.3442 14.266ZM32.3902 22.63C29.4322 27.492 23.6522 31.096 17.3962 33.102C18.1442 33.816 19.4362 35.278 19.9802 36.06C26.2022 33.646 32.3562 29.566 35.8922 23.956L32.3902 22.63ZM30.4862 18.074C28.0722 21.644 23.4482 24.5 18.6882 26.166C19.4022 26.778 20.5922 28.138 21.1022 28.784C25.8622 26.744 30.8262 23.412 33.6822 19.196L30.4862 18.074ZM4.23816 9.77798V13.45H36.0622V9.77798H4.23816ZM4.27216 29.668L5.08816 33.51C8.93016 32.898 14.0302 32.082 18.8582 31.266L18.6542 27.764C13.4522 28.512 7.87616 29.26 4.27216 29.668ZM9.61016 19.026H13.4862V22.834H9.61016V19.026ZM5.90416 15.864V25.996H17.4302V15.864H5.90416Z" fill="white"/>
<path d="M52.5862 6.58198V5.11997H57.0742V6.58198H70.1302V12.736H67.5462V18.074H42.1142V12.736H39.5302V6.58198H52.5862ZM39.2242 36.4C41.3775 34.36 42.9415 32.2746 43.9162 30.144H41.9102V23.344H67.8182V30.144H63.0582C63.5115 30.9826 64.0555 31.8326 64.6902 32.694L66.0842 30.756H70.8102L68.0902 34.496H66.1862C66.7755 35.1533 67.4102 35.788 68.0902 36.4H62.5822C61.0635 34.7453 59.6695 32.66 58.4002 30.144H53.6742V32.184H56.4962V36.4H49.2542V30.144H48.3362C47.3162 32.4786 46.0242 34.564 44.4602 36.4H39.2242ZM39.5302 18.958H70.1302V22.46H39.5302V18.958ZM65.7102 11.716V10.458H43.9502V11.716H65.7102ZM63.3982 27.288V26.166H46.3302V27.288H63.3982ZM49.3222 15.524V14.266H46.4662V15.524H49.3222ZM56.2582 15.524V14.266H53.4022V15.524H56.2582ZM63.1942 15.524V14.266H60.3382V15.524H63.1942Z" fill="white"/>
<path d="M88.1842 26.676L97.6022 24.806V5.83398H102.022V23.956L105.388 23.276V27.832L102.022 28.512V36.74H97.6022V29.362L88.1842 31.232V26.676ZM74.0062 35.414C74.9355 30.2913 75.4002 24.9986 75.4002 19.536H78.5962C78.5962 25.384 78.1882 30.6766 77.3722 35.414H74.0062ZM74.3802 13.824H79.2762V10.866C77.8255 10.934 76.3408 10.968 74.8222 10.968V6.81997C78.4488 6.81997 82.4608 6.49131 86.8582 5.83398V10.016C85.3168 10.2653 84.2402 10.424 83.6282 10.492V13.824H87.5042V17.972H83.6282V20.556L87.4362 22.426V27.288L83.6282 25.418V36.74H79.5142V17.972H74.3802V13.824ZM88.4902 15.49L95.3582 17.87V22.12L88.4902 19.74V15.49ZM89.8502 7.77198L96.7182 10.152V14.402L89.8502 12.022V7.77198Z" fill="white"/>
<path d="M120.076 32.048C122.637 31.0053 124.847 29.8946 126.706 28.716C124.213 25.7466 122.513 21.9273 121.606 17.258H128.236V12.702H121.368V8.55398H128.236V5.79998H132.588V8.55398H139.66V12.702H132.588V17.258H139.252C138.776 21.7006 136.725 25.656 133.098 29.124C135.206 30.688 137.28 31.742 139.32 32.286V36.808C135.376 35.244 132.237 33.5553 129.902 31.742C127.069 33.782 123.793 35.3913 120.076 36.57V32.048ZM108.754 21.78L112.29 20.93V14.64H109.094V10.356H112.29V5.62997H116.71V10.356H119.94V14.64H116.71V19.91L120.28 19.06V23.786L116.71 24.636V36.4H109.672V32.286H112.29V25.656L108.754 26.506V21.78ZM126.672 21.202C127.397 22.9473 128.497 24.6473 129.97 26.302C131.738 24.6926 133.053 22.9926 133.914 21.202H126.672Z" fill="white"/>
<path d="M172.504 22.086V36.128H145.236V22.086H172.504ZM145.474 5.39198H149.826L149.35 6.58198H158.156V10.254H153.362V11.852H158.87V15.592H153.804C154.529 16.136 155.3 16.578 156.116 16.918C156.932 17.258 157.85 17.5526 158.87 17.802V21.814C157.17 21.474 155.719 21.032 154.518 20.488C153.339 19.9213 152.24 19.094 151.22 18.006C150.177 19.094 149.067 19.9213 147.888 20.488C146.732 21.032 145.293 21.474 143.57 21.814V17.802C144.59 17.5526 145.508 17.258 146.324 16.918C147.14 16.578 147.911 16.136 148.636 15.592H143.57V11.852H149.01V10.254H143.536L145.474 5.39198ZM168.084 32.422V30.756H149.656V32.422H168.084ZM168.084 27.458V25.792H149.656V27.458H168.084ZM160.298 6.41197H173.32V20.692H160.298V6.41197ZM169.07 16.442V10.662H164.548V16.442H169.07Z" fill="white"/>
<path d="M179.882 24.874H201.54V23.718H181.922V21.134H201.54V19.978H180.222V17.19H206.062V27.696H179.882V24.874ZM178.25 32.048C179.927 31.232 180.902 30.0193 181.174 28.41H185.016C184.789 32.286 182.534 34.9493 178.25 36.4V32.048ZM178.25 13.008H184.064V12.09H179.406V9.64198H184.064V8.68998H178.76V6.10598H184.064V5.11997H188.484V6.10598H192.632V8.68998H188.484V9.64198H192.156V12.09H188.484V13.008H193.142V15.626H188.484V16.68H184.064V15.626H178.25V13.008ZM185.9 28.41H190.116V32.966H198.072V30.552H202.118V36.4H185.9V28.41ZM196.372 28.41L197.29 32.116H192.938L192.02 28.41H196.372ZM193.958 13.008H198.616V12.09H194.944V9.64198H198.616V8.68998H194.468V6.10598H198.616V5.11997H203.036V6.10598H208.34V8.68998H203.036V9.64198H207.694V12.09H203.036V13.008H208.85V15.626H203.036V16.68H198.616V15.626H193.958V13.008ZM205.926 28.41C206.198 30.0193 207.173 31.232 208.85 32.048V36.4C204.566 34.9493 202.311 32.286 202.084 28.41H205.926Z" fill="white"/>
<path d="M212.93 30.11H225.884V12.056H214.664V7.49997H241.796V12.056H230.576V30.11H243.53V34.666H212.93V30.11Z" fill="white"/>
<path d="M246.93 36.4C248.29 33.7026 249.242 31.0846 249.786 28.546C250.33 25.9846 250.602 23.0606 250.602 19.774V7.12598H278.21V11.75H255.26V19.774C255.26 22.9246 255.033 25.8373 254.58 28.512C254.149 31.1866 253.424 33.816 252.404 36.4H246.93Z" fill="white"/>
<path d="M301.568 13.96V30.28H285.112V13.96H301.568ZM282.018 6.64998H313.162V11.036H310.272V36.468H300.82V32.082H305.886V11.036H282.018V6.64998ZM297.216 25.928V18.346H289.464V25.928H297.216Z" fill="white"/>
<path d="M329.516 6.37797H346.584V26.2H342.504V10.798H333.596V26.2H329.516V6.37797ZM316.29 25.758C319.237 21.882 321.458 17.802 322.954 13.518H317.004V9.30198H320.744V5.62997H325.096V9.30198H328.598C328.031 12.2033 327.204 15.048 326.116 17.836C325.844 18.5386 325.572 19.162 325.3 19.706L328.666 21.542V26.166L325.232 24.296V36.4H320.812V25.758H316.29ZM328.632 36.4C331.352 33.5893 333.256 30.8466 334.344 28.172C335.455 25.4746 336.01 22.4033 336.01 18.958V12.26H339.954V18.958C339.954 22.29 339.501 25.3726 338.594 28.206C337.71 31.0393 336.248 33.7706 334.208 36.4H328.632ZM339.138 27.39H343.014V32.252H347.876V36.4H339.138V27.39Z" fill="white"/>
<path d="M365.828 23.31C363.516 24.3526 361.487 25.214 359.742 25.894V20.862C361.85 20.0233 363.879 19.1393 365.828 18.21V5.79998H370.316V16C373.965 14.096 377.535 12.022 381.026 9.77798V15.082C377.739 17.258 374.169 19.298 370.316 21.202V31.572H382.488V36.128H365.828V23.31ZM351.31 17.054C353.939 14.0393 355.775 10.288 356.818 5.79998H361.272C360.773 8.81464 359.935 11.6253 358.756 14.232V36.57H354.336V21.134C353.52 22.0633 352.511 23.038 351.31 24.058V17.054Z" fill="white"/>
</g>
<defs>
<filter id="filter0_dd_472_21989" x="0.238159" y="0.0999756" width="386.25" height="40.708" filterUnits="userSpaceOnUse" color-interpolation-filters="sRGB">
<feFlood flood-opacity="0" result="BackgroundImageFix"/>
<feColorMatrix in="SourceAlpha" type="matrix" values="0 0 0 0 0 0 0 0 0 0 0 0 0 0 0 0 0 0 127 0" result="hardAlpha"/>
<feOffset/>
<feGaussianBlur stdDeviation="2"/>
<feColorMatrix type="matrix" values="0 0 0 0 0.0235294 0 0 0 0 0.509804 0 0 0 0 0.905882 0 0 0 0.55 0"/>
<feBlend mode="normal" in2="BackgroundImageFix" result="effect1_dropShadow_472_21989"/>
<feColorMatrix in="SourceAlpha" type="matrix" values="0 0 0 0 0 0 0 0 0 0 0 0 0 0 0 0 0 0 127 0" result="hardAlpha"/>
<feOffset/>
<feGaussianBlur stdDeviation="2"/>
<feComposite in2="hardAlpha" operator="out"/>
<feColorMatrix type="matrix" values="0 0 0 0 0 0 0 0 0 0 0 0 0 0 0 0 0 0 0.25 0"/>
<feBlend mode="normal" in2="effect1_dropShadow_472_21989" result="effect2_dropShadow_472_21989"/>
<feBlend mode="normal" in="SourceGraphic" in2="effect2_dropShadow_472_21989" result="shape"/>
</filter>
</defs>
</svg>
